<?xml version="1.0" encoding="UTF-8" standalone="no"?>
<!-- Created with Inkscape (http://www.inkscape.org/) -->

<svg
   width="336"
   height="336"
   viewBox="0 0 336 336"
   version="1.1"
   id="svg1"
   inkscape:version="1.4.2 (ebf0e940d0, 2025-05-08)"
   sodipodi:docname="logo.svg"
   inkscape:export-filename="logo.png"
   inkscape:export-xdpi="96"
   inkscape:export-ydpi="96"
   xmlns:inkscape="http://www.inkscape.org/namespaces/inkscape"
   xmlns:sodipodi="http://sodipodi.sourceforge.net/DTD/sodipodi-0.dtd"
   xmlns:xlink="http://www.w3.org/1999/xlink"
   xmlns="http://www.w3.org/2000/svg"
   xmlns:svg="http://www.w3.org/2000/svg">
  <sodipodi:namedview
     id="namedview1"
     pagecolor="#ffffff"
     bordercolor="#000000"
     borderopacity="0.25"
     inkscape:showpageshadow="2"
     inkscape:pageopacity="0.0"
     inkscape:pagecheckerboard="true"
     inkscape:deskcolor="#d1d1d1"
     inkscape:document-units="px"
     showgrid="true"
     inkscape:zoom="1"
     inkscape:cx="166.5"
     inkscape:cy="176"
     inkscape:window-width="1920"
     inkscape:window-height="1011"
     inkscape:window-x="0"
     inkscape:window-y="0"
     inkscape:window-maximized="1"
     inkscape:current-layer="layer2">
    <inkscape:grid
       id="grid1"
       units="px"
       originx="0"
       originy="0"
       spacingx="1"
       spacingy="1"
       empcolor="#0099e5"
       empopacity="0.30196078"
       color="#0099e5"
       opacity="0.14901961"
       empspacing="5"
       enabled="true"
       visible="true" />
  </sodipodi:namedview>
  <defs
     id="defs1">
    <linearGradient
       id="linearGradient1">
      <stop
         style="stop-color:#e19393;stop-opacity:1;"
         offset="0"
         id="stop26" />
      <stop
         style="stop-color:#bae193;stop-opacity:1;"
         offset="0.25"
         id="stop27" />
      <stop
         style="stop-color:#93dde1;stop-opacity:1;"
         offset="0.5"
         id="stop28" />
      <stop
         style="stop-color:#c093e1;stop-opacity:1;"
         offset="0.75"
         id="stop29" />
      <stop
         style="stop-color:#e19393;stop-opacity:1;"
         offset="1"
         id="stop30" />
    </linearGradient>
    <linearGradient
       id="linearGradient15"
       inkscape:collect="always">
      <stop
         style="stop-color:#000000;stop-opacity:0.68000001;"
         offset="0"
         id="stop16" />
      <stop
         style="stop-color:#000000;stop-opacity:0.68000001;"
         offset="0.58882791"
         id="stop18" />
      <stop
         style="stop-color:#000000;stop-opacity:0.4703511;"
         offset="0.89356774"
         id="stop17" />
    </linearGradient>
    <linearGradient
       id="linearGradient3"
       inkscape:collect="always">
      <stop
         style="stop-color:#ffffff;stop-opacity:1;"
         offset="0.88999897"
         id="stop6" />
      <stop
         style="stop-color:#c0ff74;stop-opacity:1;"
         offset="0.88999897"
         id="stop7" />
    </linearGradient>
    <linearGradient
       id="linearGradient12"
       inkscape:collect="always">
      <stop
         style="stop-color:#bb2a2a;stop-opacity:1;"
         offset="0.14615385"
         id="stop12" />
      <stop
         style="stop-color:#451a1a;stop-opacity:1;"
         offset="0.8525641"
         id="stop13" />
    </linearGradient>
    <linearGradient
       id="linearGradient1-1">
      <stop
         style="stop-color:#ffc0c0;stop-opacity:1;"
         offset="0"
         id="stop1" />
      <stop
         style="stop-color:#dfffbf;stop-opacity:1;"
         offset="0.25"
         id="stop15" />
      <stop
         style="stop-color:#bffdff;stop-opacity:1;"
         offset="0.5"
         id="stop11" />
      <stop
         style="stop-color:#e4bfff;stop-opacity:1;"
         offset="0.75"
         id="stop14" />
      <stop
         style="stop-color:#ffbfbf;stop-opacity:1;"
         offset="1"
         id="stop2" />
    </linearGradient>
    <linearGradient
       inkscape:collect="always"
       xlink:href="#linearGradient1"
       id="linearGradient2"
       x1="18"
       y1="18"
       x2="318"
       y2="318"
       gradientUnits="userSpaceOnUse" />
    <linearGradient
       inkscape:collect="always"
       xlink:href="#linearGradient12"
       id="linearGradient13"
       x1="245"
       y1="91"
       x2="91"
       y2="245"
       gradientUnits="userSpaceOnUse"
       gradientTransform="translate(0,-27.25)" />
    <linearGradient
       inkscape:collect="always"
       xlink:href="#linearGradient3"
       id="linearGradient7"
       x1="65.671875"
       y1="257.55372"
       x2="270.32813"
       y2="257.55372"
       gradientUnits="userSpaceOnUse" />
    <linearGradient
       inkscape:collect="always"
       xlink:href="#linearGradient1-1"
       id="linearGradient26"
       x1="160"
       y1="-280"
       x2="160"
       y2="20"
       gradientUnits="userSpaceOnUse" />
    <clipPath
       clipPathUnits="userSpaceOnUse"
       id="clipPath33">
      <rect
         style="display:inline;opacity:1;fill:#ffffff;fill-opacity:1;fill-rule:evenodd;stroke:none;stroke-width:4.90234;stroke-linecap:butt;stroke-linejoin:round;stroke-dasharray:none;stroke-opacity:1;paint-order:normal"
         id="rect34"
         width="251"
         height="251"
         x="42.5"
         y="42.5"
         rx="18.5"
         ry="18.5" />
    </clipPath>
    <radialGradient
       inkscape:collect="always"
       xlink:href="#linearGradient15"
       id="radialGradient37"
       cx="168"
       cy="168"
       fx="168"
       fy="168"
       r="130.5"
       gradientUnits="userSpaceOnUse" />
  </defs>
  <g
     inkscape:label="Layer 1"
     inkscape:groupmode="layer"
     id="layer1">
    <rect
       style="opacity:1;fill:#000000;fill-rule:evenodd;stroke-width:0.6;stroke-linejoin:round;-inkscape-stroke:none;fill-opacity:1"
       id="OuterBorder"
       width="322"
       height="322"
       x="7"
       y="7"
       rx="54"
       ry="54" />
    <rect
       style="opacity:1;fill:url(#linearGradient2);fill-rule:evenodd;stroke-width:0.6;stroke-linejoin:round;-inkscape-stroke:none"
       id="InnerBorder"
       width="300"
       height="300"
       x="18"
       y="18"
       rx="43"
       ry="43" />
    <rect
       style="display:inline;opacity:1;fill:url(#radialGradient37);fill-opacity:0.316901;fill-rule:evenodd;stroke:#000000;stroke-width:5;stroke-linejoin:round;stroke-dasharray:none;stroke-opacity:1;stroke-linecap:butt;paint-order:normal"
       id="Background"
       width="256"
       height="256"
       x="40"
       y="40"
       rx="21"
       ry="21" />
    <rect
       style="display:none;mix-blend-mode:color-dodge;fill:#616161;fill-opacity:1;fill-rule:evenodd;stroke-width:0.600903;stroke-linejoin:round;-inkscape-stroke:none"
       id="TransparentRect1"
       width="102.189"
       height="112.87572"
       x="40.780338"
       y="111.09277"
       rx="4.0875559"
       ry="3.9261119"
       transform="matrix(0.96739429,-0.25327511,0.17759197,0.98410421,0,0)" />
    <rect
       style="display:none;opacity:1;mix-blend-mode:color-dodge;fill:#616161;fill-opacity:1;fill-rule:evenodd;stroke-width:0.600903;stroke-linejoin:round;-inkscape-stroke:none"
       id="TransparentRect2"
       width="102.189"
       height="112.87572"
       x="138.88167"
       y="132.68639"
       rx="4.0875559"
       ry="3.9261119"
       transform="matrix(0.96739429,-0.25327511,0.17759197,0.98410421,0,0)" />
    <path
       id="NoSign"
       style="display:none;opacity:1;fill:url(#linearGradient13);fill-rule:evenodd;stroke:#270505;stroke-width:7.5;stroke-linejoin:round;stroke-dasharray:none;stroke-opacity:1;paint-order:stroke fill markers"
       d="m 168,63.75 a 77,77 0 0 0 -77,77 77,77 0 0 0 77,77 77,77 0 0 0 77,-77 77,77 0 0 0 -77,-77 z m 0,14 a 63,63 0 0 1 39.32031,13.7793 L 118.7793,180.07031 A 63,63 0 0 1 105,140.75 a 63,63 0 0 1 63,-63 z m 49.2207,23.67969 A 63,63 0 0 1 231,140.75 a 63,63 0 0 1 -63,63 63,63 0 0 1 -39.32031,-13.7793 z" />
    <path
       id="Text"
       d="m 104.70117,244.93555 c -3.65867,0 -6.495718,1.19465 -8.511717,3.58398 -1.866665,2.24 -2.800781,5.22566 -2.800781,8.95899 0,3.77067 0.934116,6.79537 2.800781,8.99804 1.978665,2.352 4.815717,3.54688 8.511717,3.54688 3.69599,0 6.60856,-1.15777 8.69922,-3.50977 1.97867,-2.24 2.98633,-5.22761 2.98633,-8.96094 0,-1.60533 -0.187,-3.09763 -0.59766,-4.40429 l -0.11133,-0.37305 c -1.568,-5.22667 -5.22724,-7.83984 -10.97656,-7.83984 z m 32.89063,0 c -3.65866,0 -6.49572,1.19465 -8.51172,3.58398 -1.86667,2.24 -2.80078,5.22566 -2.80078,8.95899 0,3.77067 0.93411,6.79537 2.80078,8.99804 1.97866,2.352 4.81572,3.54688 8.51172,3.54688 3.696,0 6.60855,-1.15777 8.69922,-3.50977 1.97866,-2.24 2.98632,-5.22761 2.98632,-8.96094 0,-1.60533 -0.18698,-3.09763 -0.59765,-4.40429 l -0.11133,-0.37305 c -1.568,-5.22667 -5.22723,-7.83984 -10.97656,-7.83984 z m 24.49023,0 c -3.65866,0 -6.49572,1.19465 -8.51172,3.58398 -1.86666,2.24 -2.79883,5.22566 -2.79883,8.95899 0,3.77067 0.93217,6.79537 2.79883,8.99804 1.97867,2.352 4.81573,3.54688 8.51172,3.54688 3.696,0 6.60856,-1.15777 8.69922,-3.50977 1.97867,-2.24 2.98633,-5.22761 2.98633,-8.96094 0,-1.60533 -0.187,-3.09763 -0.59766,-4.40429 l -0.11133,-0.37305 c -1.568,-5.22667 -5.22723,-7.83984 -10.97656,-7.83984 z m 24.49219,0 c -3.65866,0 -6.49767,1.19465 -8.51367,3.58398 -1.86667,2.24 -2.79883,5.22566 -2.79883,8.95899 0,3.77067 0.93216,6.79537 2.79883,8.99804 1.97866,2.352 4.81767,3.54688 8.51367,3.54688 3.696,0 6.6066,-1.15777 8.69726,-3.50977 1.97867,-2.24 2.98633,-5.22761 2.98633,-8.96094 0,-1.60533 -0.18503,-3.09763 -0.5957,-4.40429 l -0.11328,-0.37305 c -1.568,-5.22667 -5.22528,-7.83984 -10.97461,-7.83984 z m 24.49023,0 c -3.65866,0 -6.49572,1.19465 -8.51172,3.58398 -1.86666,2.24 -2.80078,5.22566 -2.80078,8.95899 0,3.77067 0.93412,6.79537 2.80078,8.99804 1.97867,2.352 4.81573,3.54688 8.51172,3.54688 3.696,0 6.60661,-1.15777 8.69727,-3.50977 1.97867,-2.24 2.98828,-5.22761 2.98828,-8.96094 0,-1.60533 -0.187,-3.09763 -0.59766,-4.40429 l -0.11328,-0.37305 c -1.568,-5.22667 -5.22528,-7.83984 -10.97461,-7.83984 z m 24.49024,0 c -3.65866,0 -6.49572,1.19465 -8.51172,3.58398 -1.86667,2.24 -2.80078,5.22566 -2.80078,8.95899 0,3.77067 0.93411,6.79537 2.80078,8.99804 1.97866,2.352 4.81572,3.54688 8.51172,3.54688 3.696,0 6.60856,-1.15777 8.69922,-3.50977 1.97867,-2.24 2.98632,-5.22761 2.98632,-8.96094 0,-1.60533 -0.18698,-3.09763 -0.59765,-4.40429 l -0.11133,-0.37305 c -1.568,-5.22667 -5.22723,-7.83984 -10.97656,-7.83984 z m -154.261721,0.11133 c -2.650665,-0.112 -5.15146,0.29931 -7.578125,1.19531 -1.455998,0.56 -2.687313,1.26828 -3.695313,2.12695 -0.410666,0.336 -0.597656,0.85947 -0.597656,1.49414 0,0.336 0.03643,0.70847 0.148437,1.11914 0.56,1.53066 1.232074,2.31422 1.941407,2.35156 0.485332,0 1.157407,-0.22387 1.941406,-0.67187 1.082666,-0.63467 2.202043,-0.93337 3.359375,-0.9707 0.933333,0.0373 1.41925,0.48658 1.53125,1.41992 0.112,1.53066 -0.484126,2.23872 -1.828125,2.16406 -1.306666,-0.0747 -2.316282,6.1e-4 -2.988281,0.22461 -0.634666,0.26133 -0.931641,0.93341 -0.931641,1.94141 0,0.97066 0.223652,1.60562 0.708985,1.90429 0.56,0.29866 1.642938,0.4475 3.210937,0.41016 1.381332,-0.0373 1.977458,0.67336 1.828125,2.05469 -0.07467,1.008 -0.634578,1.49241 -1.642578,1.45507 -1.082665,-0.0373 -2.165381,-0.33604 -3.248047,-0.9707 -0.783999,-0.448 -1.456074,-0.67187 -1.941406,-0.67187 -0.709333,0.0373 -1.381408,0.82089 -1.941407,2.35156 -0.111999,0.41066 -0.148437,0.78509 -0.148437,1.12109 0,0.63466 0.18699,1.15619 0.597656,1.49219 1.008,0.85866 2.239315,1.56891 3.695313,2.12891 2.426665,0.89599 4.92746,1.30536 7.578125,1.19336 7.055994,-0.224 10.564901,-2.87407 10.490234,-7.91407 -0.03733,-1.904 -0.895725,-3.39757 -2.650391,-4.51757 1.754666,-1.12 2.613058,-2.61358 2.650391,-4.51758 0.07467,-5.03999 -3.43424,-7.69007 -10.490234,-7.91406 z m 179.537111,0.44726 c -1.86667,0 -3.2121,0.0753 -3.9961,0.22461 -0.48533,0.112 -0.8578,0.22372 -1.11914,0.37305 -1.56799,0.896 -3.39762,2.12926 -5.48828,3.69726 -1.008,0.74667 -1.49414,1.45474 -1.49414,2.16406 0,0.672 0.26249,1.34363 0.78516,2.01563 0.52266,0.63467 1.11924,0.9707 1.7539,0.9707 0.26133,0 0.70908,-0.18548 1.34375,-0.52148 0.63467,-0.336 1.08288,-0.52344 1.26954,-0.52344 0.112,0 0.22393,0.0384 0.33593,0.15039 0.14934,0.18666 0.22461,0.89495 0.22461,2.12696 v 5.15234 c 0,2.05333 0.0366,3.47142 0.11133,4.33008 0.112,1.41867 0.3361,2.27751 0.63477,2.57617 0.93333,0.93333 2.61435,1.45681 5.04101,1.49414 0.41067,0 0.89508,1.9e-4 1.45508,-0.0371 1.68,-0.112 2.80088,-0.41115 3.43555,-0.89648 0.70933,-0.59733 1.0818,-1.71694 1.11914,-3.32227 l 0.26172,-14.59766 c 0,-0.18667 -1.9e-4,-0.52203 0.0371,-1.08203 0.0373,-0.448 0.0371,-0.82265 0.0371,-1.08398 -0.0373,-2.128 -1.15671,-3.21094 -3.35937,-3.21094 z m -156.35352,6.16016 c 1.26933,0.0373 2.1668,1.12027 2.68946,3.21093 0.37334,1.456 0.52193,2.94936 0.44726,4.55469 -0.112,2.27733 -0.78385,3.54705 -1.97851,3.8457 -0.48534,0.0747 -0.97171,-0.0737 -1.45704,-0.48437 -1.38133,-1.15733 -2.05273,-3.17372 -2.05273,-6.12305 0,-0.41067 -1.9e-4,-0.82153 0.0371,-1.26953 0.14933,-2.53867 0.93311,-3.77171 2.31445,-3.73437 z m 32.89063,0 c 1.26933,0.0373 2.16678,1.12027 2.68945,3.21093 0.37333,1.456 0.52193,2.94936 0.44727,4.55469 -0.112,2.27733 -0.78385,3.54705 -1.97852,3.8457 -0.48533,0.0747 -0.96974,-0.0737 -1.45508,-0.48437 -1.38133,-1.15733 -2.05468,-3.17372 -2.05469,-6.12305 0,-0.41067 -1.9e-4,-0.82153 0.0371,-1.26953 0.14933,-2.53867 0.93313,-3.77171 2.31446,-3.73437 z m 24.49219,0 c 1.26933,0.0373 2.16484,1.12027 2.6875,3.21093 0.37334,1.456 0.52193,2.94936 0.44726,4.55469 -0.112,2.27733 -0.78386,3.54705 -1.97852,3.8457 -0.48534,0.0747 -0.96974,-0.0737 -1.45507,-0.48437 -1.38133,-1.15733 -2.05469,-3.17372 -2.05469,-6.12305 0,-0.41067 0.002,-0.82153 0.0391,-1.26953 0.14933,-2.53867 0.93313,-3.77171 2.31446,-3.73437 z m 24.49023,0 c 1.26933,0.0373 2.16483,1.12027 2.6875,3.21093 0.37333,1.456 0.52193,2.94936 0.44727,4.55469 -0.112,2.27733 -0.78385,3.54705 -1.97852,3.8457 -0.48533,0.0747 -0.96974,-0.0737 -1.45508,-0.48437 -1.38133,-1.15733 -2.05273,-3.17372 -2.05273,-6.12305 0,-0.41067 -1.9e-4,-0.82153 0.0371,-1.26953 0.14933,-2.53867 0.93312,-3.77171 2.31445,-3.73437 z m 24.49023,0 c 1.26933,0.0373 2.16484,1.12027 2.6875,3.21093 0.37334,1.456 0.52389,2.94936 0.44922,4.55469 -0.112,2.27733 -0.78385,3.54705 -1.97851,3.8457 -0.48534,0.0747 -0.9717,-0.0737 -1.45703,-0.48437 -1.38133,-1.15733 -2.05274,-3.17372 -2.05274,-6.12305 0,-0.41067 -1.9e-4,-0.82153 0.0371,-1.26953 0.14933,-2.53867 0.93311,-3.77171 2.31445,-3.73437 z m 24.49024,0 c 1.26933,0.0373 2.16678,1.12027 2.68945,3.21093 0.37333,1.456 0.52194,2.94936 0.44727,4.55469 -0.112,2.27733 -0.78385,3.54705 -1.97852,3.8457 -0.48533,0.0747 -0.9717,-0.0737 -1.45703,-0.48437 -1.38134,-1.15733 -2.05273,-3.17372 -2.05273,-6.12305 0,-0.41067 -1.9e-4,-0.82153 0.0371,-1.26953 0.14933,-2.53867 0.93313,-3.77171 2.31446,-3.73437 z m -113.9043,11.57422 c -2.352,0 -3.54515,1.19465 -3.50781,3.58398 0.0373,2.24 1.19314,3.35938 3.50781,3.35938 2.24,0 3.36133,-1.11938 3.36133,-3.35938 0,-2.38933 -1.12133,-3.58398 -3.36133,-3.58398 z"
       style="font-size:37.3333px;line-height:1.15;font-family:Pusab;-inkscape-font-specification:Pusab;text-align:center;text-anchor:middle;display:none;fill:url(#linearGradient7);fill-rule:evenodd;stroke:#121212;stroke-width:7.5;stroke-linejoin:round;paint-order:stroke fill markers" />
  </g>
  <g
     inkscape:groupmode="layer"
     id="layer2"
     inkscape:label="Layer 2">
    <g
       id="g18"
       style="display:none">
      <path
         id="path1"
         style="fill:#ffffff;fill-opacity:1;fill-rule:evenodd;stroke:#000000;stroke-width:8.00001;stroke-linejoin:round;stroke-dasharray:none;paint-order:stroke fill markers"
         d="m 168,104 c -35.34622,0 -64,28.65378 -64,64 0,35.34622 28.65378,64 64,64 35.34622,0 64,-28.65378 64,-64 0,-35.34622 -28.65378,-64 -64,-64 z"
         sodipodi:nodetypes="sssss" />
      <circle
         style="fill:#ffffff;fill-opacity:1;fill-rule:evenodd;stroke:#000000;stroke-width:8.00001;stroke-linejoin:round;stroke-dasharray:none;paint-order:stroke fill markers"
         id="circle2"
         cx="234"
         cy="106"
         r="18" />
      <path
         style="baseline-shift:baseline;display:inline;overflow:visible;fill:#ffffff;fill-opacity:1;fill-rule:evenodd;stroke:#000000;stroke-width:8.00001;stroke-linecap:round;stroke-linejoin:round;stroke-dasharray:none;stroke-dashoffset:0;stroke-opacity:1;paint-order:stroke fill markers;enable-background:accumulate;stop-color:#000000"
         d="m 108.42802,92.73202 c -1.7283,1.37471 -2.01555,3.88992 -0.64171,5.61891 1.37282,1.72638 3.88404,2.01567 5.61345,0.64668 3.99337,-3.17178 8.26963,-5.99214 12.75315,-8.41785 1.94674,-1.05116 2.67044,-3.48297 1.61522,-5.42751 -1.05298,-1.94178 -3.4806,-2.66245 -5.42254,-1.60976 -4.89769,2.64978 -9.55882,5.72753 -13.91757,9.18953 z m -17.39858,17.89577 c -3.33211,4.45972 -6.28061,9.21194 -8.78262,14.18769 -0.99204,1.97417 -0.19565,4.37877 1.7787,5.37047 1.97417,0.99205 4.37877,0.19565 5.37047,-1.7787 2.28988,-4.55389 4.98516,-8.90394 8.03735,-12.98902 1.32208,-1.76858 0.96099,-4.27393 -0.80673,-5.59717 -1.76858,-1.32209 -4.27393,-0.96099 -5.59717,0.80673 z m 52.16591,-34.20324 c -0.55469,0.90452 -0.72725,1.99239 -0.47972,3.02417 0.5155,2.14768 2.67414,3.47107 4.82196,2.95622 4.95766,-1.18493 10.02278,-1.93428 15.11635,-2.24173 2.20511,-0.13169 3.88601,-2.02597 3.75446,-4.2311 -0.13427,-2.20539 -2.03119,-3.88423 -4.23655,-3.74948 -5.55308,0.33518 -11.08341,1.14951 -16.50001,2.44413 -1.03116,0.24732 -1.92192,0.89396 -2.47648,1.79779 z m -69.1628,71.96883 c -1.13527,5.44935 -1.7931,10.99499 -1.96872,16.55687 -0.0698,2.20707 1.66204,4.05321 3.86907,4.12439 2.20707,0.0698 4.05321,-1.66205 4.12439,-3.86908 0.16101,-5.09899 0.7655,-10.18697 1.80565,-15.1797 0.44715,-2.16052 -0.9395,-4.27514 -3.09921,-4.72621 -2.16048,-0.45052 -4.27764,0.9339 -4.73118,3.09375 z M 182.36233,77.04207 c -0.43671,2.16766 0.96819,4.27843 3.13643,4.71226 5.00011,1.00713 9.90902,2.45019 14.6561,4.31048 2.05776,0.80985 4.38221,-0.20368 5.1891,-2.26261 0.80596,-2.05788 -0.20971,-4.37939 -2.26807,-5.18412 -5.18393,-2.03149 -10.54023,-3.608 -15.99633,-4.70698 -2.16762,-0.44006 -4.28091,0.9626 -4.71723,3.13097 z M 75.003,186.78217 c -0.55836,0.90076 -0.73643,1.9863 -0.49512,3.01824 1.25773,5.42214 2.98908,10.736 5.17537,15.85837 0.86727,2.03106 3.21649,2.97493 5.2479,2.10854 2.03106,-0.86727 2.97495,-3.21646 2.10854,-5.2479 -2.00086,-4.68791 -3.5882,-9.55845 -4.74065,-14.52667 -0.49944,-2.15377 -2.65143,-3.49388 -4.80463,-2.99199 -1.03392,0.23975 -1.93016,0.8806 -2.4914,1.78142 z m 18.07422,34.75511 c -1.74038,1.36205 -2.04641,3.87735 -0.68342,5.61698 3.43045,4.3767 7.23718,8.46225 11.37016,12.1897 1.64037,1.47738 4.16749,1.34654 5.6465,-0.29236 1.48215,-1.63956 1.35366,-4.17043 -0.2869,-5.65147 -3.78782,-3.41616 -7.28507,-7.16693 -10.43432,-11.18489 -1.36333,-1.73545 -3.87462,-2.03882 -5.61201,-0.67797 z m 29.50387,26.5947 c -1.00689,1.96769 -0.22699,4.37905 1.74148,5.38442 4.95954,2.53721 10.14484,4.62886 15.46455,6.26042 2.11129,0.64495 4.34592,-0.54249 4.99294,-2.65315 0.64495,-2.11129 -0.54248,-4.34592 -2.65315,-4.99294 -4.87775,-1.49601 -9.62472,-3.41935 -14.1614,-5.74022 -1.96768,-1.00689 -4.37904,-0.22699 -5.38442,1.74147 z M 254.60323,136.608 c -2.10414,0.6632 -3.27404,2.90481 -2.61483,5.01021 1.52628,4.86584 2.62331,9.8725 3.27979,14.92929 0.28387,2.19282 2.29298,3.73935 4.48544,3.45272 2.19281,-0.28387 3.73935,-2.29298 3.45271,-4.48544 -0.71671,-5.52079 -1.92183,-10.97492 -3.58793,-16.28648 -0.66081,-2.10891 -2.90664,-3.28229 -5.01518,-2.6203 z m -89.89626,119.33282 c -2.20635,-0.084 -4.06351,1.63553 -4.14923,3.84182 -0.0871,2.21031 1.63632,4.07167 3.84678,4.15468 5.56151,0.21223 11.14013,-0.0638 16.65456,-0.8171 2.18604,-0.30145 3.715,-2.31628 3.41695,-4.50278 -0.30144,-2.18603 -2.31628,-3.71499 -4.50278,-3.41694 -5.05366,0.69035 -10.16932,0.93482 -15.26627,0.74033 z m 92.09008,-79.15254 c -0.84342,0.64868 -1.39362,1.60669 -1.52893,2.66206 -0.66166,5.06095 -1.76208,10.0597 -3.28821,14.92292 -0.66011,2.10784 0.51321,4.35176 2.62089,5.01235 2.10778,0.66378 4.35447,-0.50737 5.01733,-2.61544 1.66764,-5.31416 2.86033,-10.77355 3.5814,-16.28884 0.28416,-2.18817 -1.2573,-4.19316 -3.44499,-4.48095 -1.0513,-0.13983 -2.11509,0.14358 -2.95749,0.7879 z m -54.7342,72.39155 c -2.04025,0.85126 -3.0031,3.19614 -2.14977,5.23554 0.85532,2.03646 3.19938,2.99419 5.23603,2.13934 5.1371,-2.15121 10.08155,-4.7541 14.76108,-7.77096 1.85496,-1.19621 2.3904,-3.66886 1.19649,-5.52529 -1.19463,-1.85992 -3.6714,-2.39822 -5.53026,-1.20195 -4.28518,2.76263 -8.81216,5.15457 -13.51357,7.12332 z m 40.28642,-34.04282 c -2.73124,4.30493 -5.84234,8.37359 -9.28333,12.13705 -1.4892,1.63095 -1.37478,4.16021 0.25561,5.65003 1.63095,1.4892 4.16022,1.37477 5.65003,-0.25562 3.75645,-4.10849 7.15645,-8.54522 10.13944,-13.24698 1.18176,-1.86455 0.62964,-4.33395 -1.23366,-5.51767 -1.86656,-1.18897 -4.34382,-0.63635 -5.52809,1.23319 z"
         id="path7"
         sodipodi:nodetypes="ccccccccccccccsccccccsscccccccccccccccsccccccssscccccssccccccccccccccscccccsscccccccccccccccccccccc" />
    </g>
    <g
       id="g18-0"
       style="display:inline;stroke-width:6.33674186;stroke-dasharray:none;paint-order:stroke fill markers"
       transform="matrix(-1.4097428,0.17275401,-0.17275401,-1.4097428,450.27447,362.2405)">
      <path
         id="path1-9"
         style="display:none;fill:#ffffff;fill-opacity:1;fill-rule:evenodd;stroke:#000000;stroke-width:6.33674186;stroke-linejoin:round;stroke-dasharray:none;paint-order:stroke fill markers"
         d="m 168,104 c -35.34622,0 -64,28.65378 -64,64 0,35.34622 28.65378,64 64,64 35.34622,0 64,-28.65378 64,-64 0,-35.34622 -28.65378,-64 -64,-64 z"
         sodipodi:nodetypes="sssss" />
      <circle
         style="display:none;fill:#ffffff;fill-opacity:1;fill-rule:evenodd;stroke:#000000;stroke-width:6.33674186;stroke-linejoin:round;stroke-dasharray:none;paint-order:stroke fill markers"
         id="circle2-3"
         cx="234"
         cy="106"
         r="18" />
      <path
         style="baseline-shift:baseline;display:none;overflow:visible;fill:#ffffff;fill-opacity:1;fill-rule:evenodd;stroke:#000000;stroke-width:6.33674;stroke-linecap:round;stroke-linejoin:round;stroke-dasharray:none;stroke-dashoffset:0;stroke-opacity:1;paint-order:stroke fill markers;enable-background:accumulate;stop-color:#000000"
         d="m 114.54487,88.291216 c -1.83094,1.234716 -2.31485,3.719594 -1.08106,5.551149 1.23298,1.828873 3.71372,2.31451 5.54532,1.085584 4.23015,-2.848327 8.71472,-5.3241 13.37492,-7.390163 2.02329,-0.895008 2.93575,-3.262463 2.03653,-5.283877 -0.89722,-2.018486 -3.26073,-2.927604 -5.27936,-2.030694 -5.09068,2.256911 -9.97915,4.959049 -14.59635,8.068001 z M 95.794437,104.76515 c -3.6721,4.18422 -6.984748,8.69018 -9.869843,13.45404 -1.144034,1.89015 -0.538971,4.34987 1.351387,5.49358 1.890152,1.14405 4.349876,0.53897 5.493585,-1.35139 2.640486,-4.35996 5.669109,-8.48487 9.032724,-12.3176 1.45691,-1.65928 1.29372,-4.18525 -0.36461,-5.64325 -1.659275,-1.45691 -4.185247,-1.29371 -5.643243,0.36462 z M 150.48564,74.764885 c -0.62402,0.858158 -0.88149,1.929114 -0.71577,2.977148 0.34523,2.181535 2.39325,3.670384 4.57488,3.325823 5.03541,-0.791876 10.14374,-1.141077 15.24572,-1.047509 2.20864,0.04192 4.03313,-1.714488 4.07519,-3.923138 0.0394,-2.209123 -1.71983,-4.031768 -3.92897,-4.070652 -5.56225,-0.102016 -11.13945,0.275425 -16.641,1.140605 -1.0474,0.165565 -1.9862,0.740243 -2.61004,1.597724 z M 75.883802,141.07907 c -1.559776,5.34334 -2.65115,10.82018 -3.263079,16.35109 -0.242936,2.19477 1.338551,4.17123 3.533172,4.41554 2.194769,0.24293 4.171232,-1.33856 4.415541,-3.53319 0.561007,-5.07059 1.563259,-10.09537 2.992344,-14.99098 0.615464,-2.11872 -0.600812,-4.33572 -2.718421,-4.95503 -2.11842,-0.61882 -4.337777,0.59503 -4.959559,2.71259 z M 189.48312,78.456822 c -0.60562,2.126663 0.62915,4.341258 2.75662,4.94405 4.90556,1.396746 9.68596,3.220913 14.27226,5.44831 1.9878,0.968972 4.38467,0.141145 5.35079,-1.848048 0.9651,-1.98822 0.13491,-4.382332 -1.85389,-5.346248 -5.00835,-2.43238 -10.22428,-4.424724 -15.5772,-5.948852 -2.12636,-0.608953 -4.3433,0.623388 -4.94858,2.750788 z M 73.83605,179.42548 c -0.627384,0.85413 -0.890166,1.92233 -0.730654,2.97003 0.827969,5.50418 2.136599,10.93761 3.913804,16.21587 0.705064,2.09291 2.972891,3.21838 5.066075,2.51422 2.092904,-0.70506 3.218392,-2.97286 2.514216,-5.06608 -1.626472,-4.83058 -2.826357,-9.81075 -3.585024,-14.85414 -0.328732,-2.18634 -2.368816,-3.69134 -4.554785,-3.36012 -1.049556,0.1578 -1.993362,0.72628 -2.623622,1.58023 z m 15.288583,36.06736 c -1.841984,1.22115 -2.34463,3.70464 -1.122488,5.54595 3.07609,4.63262 6.550165,9.00454 10.377608,13.0451 1.519263,1.60166 4.048857,1.66971 5.652017,0.15204 1.60635,-1.51808 1.67704,-4.05122 0.15788,-5.65655 -3.5078,-3.70311 -6.699649,-7.71698 -9.523584,-11.96988 -1.222809,-1.83717 -3.702513,-2.33685 -5.541422,-1.11667 z m 27.323877,28.82989 c -1.15833,1.88253 -0.57024,4.34769 1.31318,5.50457 4.74494,2.91891 9.74993,5.41137 14.92506,7.45572 2.05411,0.80879 4.3751,-0.19947 5.1859,-2.25279 0.80879,-2.05411 -0.19946,-4.3751 -2.25279,-5.1859 -4.74517,-1.87451 -9.32641,-4.16475 -13.66679,-6.83478 -1.88251,-1.15833 -4.34768,-0.57023 -5.50456,1.31318 z m 140.3738,-100.80992 c -2.14973,0.49588 -3.49208,2.63868 -3.00028,4.78935 1.13939,4.97069 1.83979,10.04805 2.09706,15.14078 0.11076,2.20834 1.99219,3.9079 4.20039,3.79436 2.20833,-0.11076 3.9079,-1.9922 3.79435,-4.2004 -0.28087,-5.56002 -1.05388,-11.09196 -2.29765,-16.51797 -0.49312,-2.1543 -2.63985,-3.50045 -4.79387,-3.00612 z m -98.9914,111.90336 c -2.19294,-0.25703 -4.17942,1.31132 -4.43816,3.50406 -0.26044,2.19664 1.31146,4.18761 3.50857,4.44398 5.52766,0.6484 11.11072,0.81139 16.66728,0.49354 2.20297,-0.12882 3.88546,-2.01733 3.76006,-4.22049 -0.12881,-2.20295 -2.01733,-3.88544 -4.22049,-3.76005 -5.09227,0.29129 -10.21132,0.1332 -15.27725,-0.46103 z m 98.02253,-71.6749 c -0.89177,0.58043 -1.51551,1.49227 -1.7333,2.53375 -1.05712,4.99335 -2.54676,9.89022 -4.45015,14.61855 -0.82363,2.04948 0.16982,4.37862 2.2191,5.20272 2.04913,0.82728 4.38087,-0.16379 5.20726,-2.21328 2.07988,-5.16676 3.69769,-10.51561 4.84972,-15.95722 0.45515,-2.15909 -0.92407,-4.27896 -3.0824,-4.73769 -1.03707,-0.22197 -2.11983,-0.023 -3.01023,0.55317 z m -60.25102,67.86887 c -2.10081,0.68839 -3.24486,2.9504 -2.55435,5.05052 0.69273,2.09735 2.95432,3.23623 5.05182,2.54399 5.2902,-1.74108 10.42381,-3.94757 15.32584,-6.58756 1.94318,-1.04682 2.67118,-3.46978 1.62677,-5.41425 -1.04485,-1.948 -3.47169,-2.67917 -5.41877,-1.6326 -4.48893,2.41752 -9.18979,4.4465 -14.03131,6.0399 z m 42.83581,-30.77339 c -3.06093,4.0771 -6.48198,7.88884 -10.20794,11.3704 -1.6127,1.50895 -1.69729,4.03938 -0.18895,5.65265 1.50894,1.6127 4.03938,1.69729 5.65265,0.18895 4.06754,-3.80075 7.80552,-7.95673 11.14858,-12.40967 1.32456,-1.76597 0.9681,-4.2711 -0.79647,-5.59752 -1.7674,-1.3319 -4.28041,-0.97556 -5.60787,0.79519 z"
         id="path7-6"
         sodipodi:nodetypes="ccccccccccccccsccccccsscccccccccccccccsccccccssscccccssccccccccccccccscccccsscccccccccccccccccccccc" />
    </g>
    <path
       sodipodi:type="star"
       style="font-variation-settings:normal;opacity:1;fill:#ffffff;fill-opacity:1;fill-rule:evenodd;stroke:#000000;stroke-width:11.4964;stroke-linecap:butt;stroke-linejoin:round;stroke-miterlimit:4;stroke-dasharray:none;stroke-dashoffset:0;stroke-opacity:1;paint-order:stroke fill markers;stop-color:#000000;stop-opacity:1"
       id="path18"
       inkscape:flatsided="true"
       sodipodi:sides="3"
       sodipodi:cx="125"
       sodipodi:cy="110"
       sodipodi:r1="55.901699"
       sodipodi:r2="27.95085"
       sodipodi:arg1="0.52359878"
       sodipodi:arg2="1.5707963"
       inkscape:rounded="-3.469447e-18"
       inkscape:randomized="0"
       d="m 173.41229,137.95085 -96.824582,0 L 125,54.098301 Z"
       inkscape:transform-center-y="-11.032997"
       transform="matrix(0.68369516,0,0,0.78945645,1.5670834,176.55586)" />
    <rect
       style="font-variation-settings:normal;display:none;opacity:1;fill:#ffffff;fill-opacity:1;fill-rule:evenodd;stroke:#000000;stroke-width:9;stroke-linecap:butt;stroke-linejoin:round;stroke-miterlimit:4;stroke-dasharray:none;stroke-dashoffset:0;stroke-opacity:1;paint-order:stroke fill markers;stop-color:#000000;stop-opacity:1"
       id="rect18"
       width="148.12408"
       height="148.12408"
       x="110.54964"
       y="80" />
    <circle
       style="font-variation-settings:normal;display:none;opacity:1;fill:none;fill-opacity:1;fill-rule:evenodd;stroke:#ffffff;stroke-width:8.1;stroke-linecap:round;stroke-linejoin:round;stroke-miterlimit:4;stroke-dasharray:16.2, 25.92;stroke-dashoffset:0;stroke-opacity:1;paint-order:stroke fill markers"
       id="path19"
       cx="-14.969035"
       cy="-239.89137"
       r="129.06204"
       transform="rotate(133.36288)" />
    <path
       style="baseline-shift:baseline;display:inline;overflow:visible;opacity:1;fill:#ffffff;fill-rule:evenodd;stroke:#000000;stroke-width:9;stroke-linecap:round;stroke-linejoin:round;stroke-dasharray:none;stroke-opacity:1;paint-order:stroke fill markers;enable-background:accumulate;stop-color:#000000;stop-opacity:1"
       d="m 285.33429,240.94272 c 3.64477,-4.20757 7.0304,-8.64116 10.12474,-13.27386 1.24264,-1.85993 0.74215,-4.37506 -1.11785,-5.61759 -1.85993,-1.24264 -4.37507,-0.74215 -5.6176,1.11786 -2.90431,4.34819 -6.08441,8.51522 -9.51076,12.47065 -1.46447,1.69014 -1.28187,4.24737 0.40789,5.71228 1.69071,1.46499 4.24898,1.28171 5.71358,-0.40934 z m -19.38024,18.33848 c 1.76846,-1.36762 2.09431,-3.90951 0.72799,-5.67898 -1.36733,-1.76981 -3.91039,-2.09631 -5.68044,-0.72929 -4.13686,3.19717 -8.47893,6.13313 -12.98722,8.78271 -1.9285,1.13347 -2.57287,3.61578 -1.43917,5.54415 1.13348,1.92849 3.61577,2.57285 5.54414,1.43916 4.80267,-2.82258 9.42622,-5.95064 13.8347,-9.35775 z m 42.02603,-55.18664 c 2.10245,-5.15837 3.87792,-10.4489 5.31321,-15.83236 0.57639,-2.16115 -0.70827,-4.38038 -2.8694,-4.95685 -2.16116,-0.5764 -4.38039,0.70826 -4.95686,2.8694 -1.34693,5.052 -3.01504,10.02074 -4.98886,14.86348 -0.84416,2.0716 0.15107,4.43527 2.22279,5.27912 2.0716,0.84416 4.43527,-0.15107 5.27912,-2.22279 z m -77.79393,73.62858 c 0.47274,-0.96437 0.54307,-2.07704 0.19552,-3.09326 -0.72327,-2.11706 -3.02608,-3.24668 -5.14294,-2.5228 -4.94907,1.69185 -10.00466,3.07393 -15.12658,4.13255 -2.18994,0.45279 -3.59844,2.59482 -3.14634,4.7849 0.45279,2.18993 2.59481,3.59844 4.78489,3.14634 5.4545,-1.12737 10.83922,-2.59786 16.10947,-4.39951 1.01623,-0.34734 1.85289,-1.08409 2.32598,-2.04822 z M 316.19899,164.7057 c 0.80416,-0.7124 1.29231,-1.71512 1.35704,-2.78749 0.33487,-5.55864 0.32068,-11.13802 -0.0397,-16.69535 -0.14484,-2.23171 -2.07117,-3.9236 -4.30291,-3.77925 -2.2317,0.14485 -3.92359,2.07117 -3.77924,4.3029 0.33849,5.22001 0.35137,10.46271 0.0368,15.68449 -0.13453,2.23212 1.56544,4.15087 3.79751,4.28623 1.07232,0.0649 2.12648,-0.29899 2.93051,-1.01147 z M 188.07145,285.74449 c 0.75589,-0.76297 1.17778,-1.79493 1.17287,-2.86893 -0.01,-2.23676 -1.83071,-4.0422 -4.06747,-4.03253 -5.23069,0.0232 -10.46385,-0.2819 -15.65642,-0.91209 -2.22031,-0.26912 -4.23845,1.31248 -4.50784,3.53275 -0.27003,2.2204 1.31106,4.23929 3.53146,4.50931 5.52867,0.67098 11.09864,0.99468 16.66775,0.97002 1.07446,-0.004 2.10316,-0.4355 2.85965,-1.19853 z M 312.75012,121.973 c 0.53415,-0.93154 0.6765,-2.03708 0.39573,-3.07354 -1.45564,-5.37678 -3.25014,-10.66164 -5.36974,-15.81277 -0.85178,-2.06773 -3.21826,-3.05376 -5.28624,-2.20257 -2.06759,0.85121 -3.05419,3.21692 -2.20403,5.28494 1.99007,4.83631 3.67625,9.79904 5.04286,14.8469 0.58478,2.15839 2.80823,3.43437 4.96682,2.85033 1.03691,-0.2806 1.91986,-0.96164 2.4546,-1.89329 z M 145.59805,279.8979 c 0.96081,-0.48051 1.69135,-1.32306 2.03087,-2.34226 0.70629,-2.1215 -0.44032,-4.41399 -2.56148,-5.12131 -4.96019,-1.65265 -9.81633,-3.62106 -14.52846,-5.88777 -2.01569,-0.97014 -4.43616,-0.12234 -5.40599,1.89349 -0.97014,2.01569 -0.12235,4.43617 1.89349,5.406 5.02029,2.41494 10.19383,4.51134 15.47982,6.27254 1.01907,0.33932 2.1312,0.25993 3.09174,-0.2207 z M 294.08286,85.172951 c 1.85449,-1.24913 2.34584,-3.764793 1.09765,-5.619921 C 292.06939,74.930931 288.66654,70.507852 285,66.315562 c -1.47241,-1.684581 -4.03185,-1.85609 -5.71586,-0.383021 -1.68323,1.472662 -1.85412,4.030946 -0.38171,5.714398 3.44339,3.937153 6.63971,8.092408 9.5592,12.429819 1.24966,1.854807 3.76623,2.345562 5.62123,1.096193 z M 266.28074,53.753336 c 1.36112,-1.775318 1.02509,-4.317945 -0.75048,-5.678729 -4.42023,-3.38796 -9.05362,-6.49801 -13.86618,-9.304728 -1.93239,-1.127604 -4.41302,-0.474716 -5.53993,1.458078 -1.12639,1.932409 -0.473,4.412053 1.45939,5.538472 4.5167,2.634171 8.86706,5.555479 13.01846,8.737388 1.77532,1.361126 4.31796,1.025101 5.67874,-0.750481 z M 74.161521,220.66746 c 1.948302,-1.0975 2.638443,-3.56633 1.541684,-5.51505 -2.564788,-4.55737 -4.840298,-9.27689 -6.808861,-14.1204 -0.842385,-2.07249 -3.205569,-3.06943 -5.277847,-2.22653 -2.071028,0.84233 -3.067721,3.20354 -2.226675,5.27509 2.097882,5.16168 4.523216,10.18945 7.255199,15.0439 1.097082,1.94964 3.567109,2.64052 5.5165,1.54299 z M 227.86775,35.181334 c 0.96254,-0.476872 1.6962,-1.3166 2.03957,-2.334432 0.71617,-2.118989 -0.42103,-4.417344 -2.54001,-5.133531 -5.27708,-1.783192 -10.66581,-3.23261 -16.12594,-4.337682 -2.1923,-0.444227 -4.3296,0.972945 -4.77369,3.165271 -0.44326,2.192213 0.97441,4.328726 3.16657,4.772229 5.12518,1.037278 10.18652,2.400844 15.141,4.075028 1.01748,0.3438 2.12986,0.269376 3.09248,-0.206903 z M 61.191115,180.01658 c 0.605837,-0.88696 0.834518,-1.97826 0.635737,-3.03383 -0.965203,-5.14113 -1.607429,-10.34429 -1.923814,-15.56558 -0.135774,-2.23215 -2.055014,-3.93181 -4.287208,-3.79671 -2.233316,0.13433 -3.934619,2.05411 -3.799447,4.28738 0.336842,5.55887 1.023258,11.09644 2.050826,16.56979 0.412428,2.19841 2.52893,3.64622 4.727335,3.23379 1.056088,-0.19812 1.990162,-0.80779 2.596598,-1.69481 z M 187.55484,27.631441 c 0.75884,-0.759904 1.18481,-1.790087 1.18422,-2.864004 -7.5e-4,-2.236365 -1.81399,-4.048846 -4.05036,-4.048647 -5.56902,0.0011 -11.13591,0.35021 -16.66094,1.044693 -2.21929,0.279096 -3.79212,2.304454 -3.513,4.523744 0.27839,2.219301 2.30313,3.792748 4.52244,3.514441 5.19064,-0.652452 10.42221,-0.982851 15.6532,-0.983881 1.07437,1.4e-4 2.10478,-0.426615 2.86444,-1.186346 z M 59.31322,139.03929 c 0.857895,-0.6472 1.423398,-1.60882 1.571994,-2.67314 0.724642,-5.17932 1.774679,-10.31312 3.143538,-15.36087 0.58564,-2.15859 -0.689384,-4.38326 -2.847929,-4.96907 -2.158522,-0.58462 -4.382368,0.69089 -4.967622,2.84924 -1.457799,5.37571 -2.57832,10.84295 -3.35014,16.35941 -0.309758,2.21482 1.2343,4.2615 3.449047,4.57179 1.063878,0.14917 2.143433,-0.13046 3.001112,-0.77736 z M 146.93551,33.357171 c 0.47761,-0.962154 0.55342,-2.074634 0.21076,-3.092687 -0.71447,-2.119642 -3.01202,-3.258716 -5.13163,-2.544155 -5.27911,1.779559 -10.44504,3.894149 -15.45744,6.324395 -2.01216,0.975631 -2.85281,3.397448 -1.87786,5.409943 0.97572,2.013689 3.39955,2.854535 5.4127,1.877706 4.70553,-2.281467 9.55507,-4.26595 14.51007,-5.936263 1.01733,-0.343457 1.85664,-1.076847 2.3334,-2.038939 z M 72.993605,97.604604 c 2.353291,-4.668859 5.003806,-9.189011 7.927455,-13.525592 1.250269,-1.854307 0.760871,-4.371034 -1.093181,-5.62168 -1.854307,-1.250268 -4.371034,-0.760869 -5.621679,1.093184 -3.113594,4.61832 -5.936766,9.432629 -8.444545,14.407966 -1.007252,1.997778 -0.203778,4.433827 1.794372,5.440343 1.997057,1.005405 4.431047,0.202268 5.437578,-1.794221 z M 108.76232,54.485005 c 1.77563,-1.359952 2.11273,-3.901782 0.75296,-5.677552 -1.35995,-1.775632 -3.90179,-2.112731 -5.67756,-0.752961 -4.423165,3.387006 -8.63047,7.05405 -12.592362,10.967537 -1.590579,1.571714 -1.606386,4.135097 -0.03531,5.726307 1.571512,1.591904 4.13601,1.6083 5.727749,0.03662 3.721523,-3.676051 7.672983,-7.12094 11.824523,-10.299949 z"
       id="circle20"
       sodipodi:nodetypes="ccccccccccsccccccccccccccccscsccccscssccccccccccccccscsccccccsscccccccccccccccccccccscccccsssccccccscccccccccccccccccccccccccccccccccscccccss"
       clip-path="url(#clipPath33)" />
    <g
       id="CubeIcon">
      <rect
         style="font-variation-settings:normal;display:none;opacity:1;fill:#ffffff;fill-opacity:1;fill-rule:evenodd;stroke:none;stroke-width:9.547;stroke-linecap:butt;stroke-linejoin:round;stroke-miterlimit:4;stroke-dasharray:none;stroke-dashoffset:0;stroke-opacity:1;paint-order:stroke fill markers;stop-color:#000000;stop-opacity:1"
         id="CubeIconGuide"
         width="155"
         height="155"
         x="80"
         y="-215" />
      <path
         style="font-variation-settings:normal;opacity:1;fill:#ffffff;fill-opacity:1;fill-rule:evenodd;stroke:#000000;stroke-width:9;stroke-linecap:round;stroke-linejoin:round;stroke-miterlimit:4;stroke-dasharray:none;stroke-dashoffset:0;stroke-opacity:1;paint-order:stroke fill markers"
         d="m 90,-60 v -10 l 10,-10 h 115 l 10,10 v 10 z"
         id="MonitorBottom" />
      <path
         style="font-variation-settings:normal;opacity:1;fill:#ffffff;fill-opacity:1;fill-rule:evenodd;stroke:#000000;stroke-width:9;stroke-linecap:round;stroke-linejoin:round;stroke-miterlimit:4;stroke-dasharray:none;stroke-dashoffset:0;stroke-opacity:1;paint-order:stroke fill markers"
         d="m 80,-215 h 155 v 115 l -25,25 H 105 l -25,-25 z"
         id="MonitorTop" />
      <rect
         style="font-variation-settings:normal;opacity:1;fill:url(#linearGradient26);fill-opacity:1;fill-rule:evenodd;stroke:#000000;stroke-width:9;stroke-linecap:round;stroke-linejoin:miter;stroke-miterlimit:4;stroke-dasharray:none;stroke-dashoffset:0;stroke-opacity:1;paint-order:stroke fill markers"
         id="MonitorScreen"
         width="135"
         height="95"
         x="90"
         y="-205" />
      <path
         style="font-variation-settings:normal;opacity:1;fill:#ffffff;fill-opacity:1;fill-rule:evenodd;stroke:#000000;stroke-width:9;stroke-linecap:round;stroke-linejoin:miter;stroke-miterlimit:4;stroke-dasharray:none;stroke-dashoffset:0;stroke-opacity:1;paint-order:stroke fill markers"
         d="m 113,-195 -8,30 h 9 l 8,-30 z"
         id="MonitorSlash"
         sodipodi:nodetypes="ccccc" />
      <rect
         style="font-variation-settings:normal;opacity:1;fill:#ffffff;fill-opacity:1;fill-rule:evenodd;stroke:#000000;stroke-width:9;stroke-linecap:round;stroke-linejoin:miter;stroke-miterlimit:4;stroke-dasharray:none;stroke-dashoffset:0;stroke-opacity:1;paint-order:stroke fill markers"
         id="MonitorLine"
         width="19"
         height="4"
         x="138"
         y="-169" />
      <circle
         style="font-variation-settings:normal;opacity:1;fill:#ffffff;fill-opacity:1;fill-rule:evenodd;stroke:#000000;stroke-width:9;stroke-linecap:round;stroke-linejoin:miter;stroke-miterlimit:4;stroke-dasharray:none;stroke-dashoffset:0;stroke-opacity:1;paint-order:stroke fill markers"
         id="MonitorCircle1"
         cx="202"
         cy="-90"
         r="7" />
      <circle
         style="font-variation-settings:normal;opacity:1;fill:#ffffff;fill-opacity:1;fill-rule:evenodd;stroke:#000000;stroke-width:9;stroke-linecap:round;stroke-linejoin:miter;stroke-miterlimit:4;stroke-dasharray:none;stroke-dashoffset:0;stroke-opacity:1;paint-order:stroke fill markers"
         id="MonitorCircle2"
         cx="169"
         cy="-90"
         r="7" />
    </g>
    <use
       x="0"
       y="0"
       xlink:href="#CubeIcon"
       id="use30"
       transform="rotate(-45,528.85547,-27.292188)" />
  </g>
</svg>
