<?xml version="1.0" encoding="UTF-8" standalone="no"?>
<!-- Created with Inkscape (http://www.inkscape.org/) -->

<svg
   width="256"
   height="256"
   viewBox="0 0 67.733333 67.733333"
   version="1.1"
   id="svg1"
   inkscape:version="1.4.2 (ebf0e940d0, 2025-05-08)"
   sodipodi:docname="script_button.svg"
   inkscape:export-filename="script_button.png"
   inkscape:export-xdpi="96"
   inkscape:export-ydpi="96"
   xmlns:inkscape="http://www.inkscape.org/namespaces/inkscape"
   xmlns:sodipodi="http://sodipodi.sourceforge.net/DTD/sodipodi-0.dtd"
   xmlns="http://www.w3.org/2000/svg"
   xmlns:svg="http://www.w3.org/2000/svg">
  <sodipodi:namedview
     id="namedview1"
     pagecolor="#ffffff"
     bordercolor="#000000"
     borderopacity="0.25"
     inkscape:showpageshadow="2"
     inkscape:pageopacity="0.0"
     inkscape:pagecheckerboard="true"
     inkscape:deskcolor="#d1d1d1"
     inkscape:document-units="px"
     inkscape:zoom="1.4289282"
     inkscape:cx="84.328941"
     inkscape:cy="158.86033"
     inkscape:window-width="1920"
     inkscape:window-height="1011"
     inkscape:window-x="0"
     inkscape:window-y="0"
     inkscape:window-maximized="1"
     inkscape:current-layer="layer1"
     showgrid="true">
    <inkscape:grid
       id="grid1"
       units="px"
       originx="0"
       originy="0"
       spacingx="0.26458333"
       spacingy="0.26458333"
       empcolor="#0099e5"
       empopacity="0.30196078"
       color="#0099e5"
       opacity="0.14901961"
       empspacing="4"
       enabled="true"
       visible="true" />
  </sodipodi:namedview>
  <defs
     id="defs1" />
  <g
     inkscape:label="Layer 1"
     inkscape:groupmode="layer"
     id="layer1">
    <circle
       style="display:none;opacity:1;fill:#ffffff;fill-opacity:1;fill-rule:evenodd;stroke:#000000;stroke-width:0.47625;stroke-linejoin:round;stroke-dasharray:none"
       id="path2"
       cx="41.804165"
       cy="20.637499"
       r="4.7624998" />
    <text
       xml:space="preserve"
       style="font-style:normal;font-variant:normal;font-weight:normal;font-stretch:normal;font-size:16.9333px;line-height:1.15;font-family:Pusab;-inkscape-font-specification:Pusab;text-align:center;writing-mode:lr-tb;direction:ltr;text-anchor:middle;fill:#ffffff;fill-opacity:1;fill-rule:evenodd;stroke:#000000;stroke-width:1.85208;stroke-linejoin:round;stroke-dasharray:none;paint-order:stroke fill markers"
       x="33.866665"
       y="65.259033"
       id="text1"><tspan
         id="tspan1"
         style="font-size:16.9333px;fill:#ffffff;fill-opacity:1;stroke-width:1.85208;stroke-dasharray:none;paint-order:stroke fill markers"
         x="33.866665"
         y="65.259033"
         sodipodi:role="line">Script</tspan></text>
    <path
       id="path1"
       style="fill:#ffffff;fill-opacity:1;fill-rule:evenodd;stroke:#000000;stroke-width:2.11666666;stroke-linejoin:round;stroke-dasharray:none;paint-order:stroke fill markers"
       d="M 33.866667 10.583333 A 16.933332 16.933332 0 0 0 16.933333 27.516667 A 16.933332 16.933332 0 0 0 33.866667 44.45 A 16.933332 16.933332 0 0 0 50.8 27.516667 A 16.933332 16.933332 0 0 0 33.866667 10.583333 z M 24.341667 17.726566 A 1.3229166 1.3229166 0 0 1 25.277527 18.115173 L 33.744193 26.58184 A 1.3230489 1.3230489 0 0 1 33.744193 28.450976 L 25.277527 36.91816 A 1.3229166 1.3229166 0 0 1 23.406323 36.91816 A 1.3229166 1.3229166 0 0 1 23.406323 35.049023 L 30.937646 27.5177 L 23.406323 19.986377 A 1.3229166 1.3229166 0 0 1 23.406323 18.115173 A 1.3229166 1.3229166 0 0 1 24.341667 17.726566 z M 34.926033 34.6599 L 43.3927 34.6599 A 1.3229166 1.3229166 0 0 1 44.7151 35.9823 A 1.3229166 1.3229166 0 0 1 43.3927 37.306767 L 34.926033 37.306767 A 1.3229166 1.3229166 0 0 1 33.601566 35.9823 A 1.3229166 1.3229166 0 0 1 34.926033 34.6599 z " />
    <circle
       style="fill:#ffffff;fill-opacity:1;fill-rule:evenodd;stroke:#000000;stroke-width:2.11666666;stroke-linejoin:round;stroke-dasharray:none;paint-order:stroke fill markers"
       id="circle2"
       cx="51.329163"
       cy="11.112499"
       r="4.7624998" />
    <path
       style="baseline-shift:baseline;display:none;overflow:visible;opacity:1;fill:#ffffff;fill-opacity:1;fill-rule:evenodd;stroke:#000000;stroke-width:0.926042;stroke-linecap:butt;stroke-linejoin:round;stroke-dasharray:none;stroke-dashoffset:0;stroke-opacity:1;paint-order:markers stroke fill;enable-background:accumulate;stop-color:#000000;stop-opacity:1"
       d="m -11.597656,17.882812 c -0.71198,0.04209 -1.421267,0.115684 -2.126953,0.220704 -0.145346,0.02059 -0.246144,0.155572 -0.22461,0.300781 0.02156,0.144554 0.156233,0.244249 0.300781,0.222656 0.68998,-0.102682 1.385458,-0.175614 2.082032,-0.216797 0.145505,-0.0089 0.256424,-0.133763 0.248047,-0.279297 -0.0089,-0.145505 -0.133763,-0.256424 -0.279297,-0.248047 z m 3.207031,0.01367 c -0.1462972,-0.01065 -0.27334,0.09974 -0.2832031,0.246094 -0.00952,0.14556 0.1005581,0.271367 0.2460937,0.28125 0.6960627,0.04696 1.3908792,0.125838 2.0800782,0.234375 0.1445889,0.02284 0.2802496,-0.07606 0.3027343,-0.220701 0.022844,-0.144589 -0.076057,-0.28025 -0.2207031,-0.302734 -0.7046399,-0.110969 -1.4132361,-0.190265 -2.125,-0.238282 z m -8.470703,0.88086 c -0.685958,0.195397 -1.363101,0.420396 -2.029297,0.675781 -0.136463,0.05231 -0.204674,0.205343 -0.152344,0.341797 0.05231,0.136463 0.205343,0.204674 0.341797,0.152344 0.651395,-0.249711 1.313243,-0.468983 1.984375,-0.660157 0.141787,-0.0393 0.224275,-0.186728 0.183594,-0.328125 -0.04016,-0.140997 -0.187316,-0.222457 -0.328125,-0.18164 z m 13.7246092,0.06055 c -0.140225,-0.04096 -0.2871106,0.03948 -0.328125,0.179687 -0.040959,0.140225 0.039478,0.287111 0.1796875,0.328125 0.6693106,0.196554 1.3290598,0.422492 1.9785157,0.677734 0.1359155,0.05404 0.2898928,-0.01245 0.34374997,-0.148438 0.0538326,-0.136461 -0.0136341,-0.290671 -0.15039057,-0.34375 -0.6638213,-0.260888 -1.3388459,-0.492318 -2.0234376,-0.693358 z M -21.804687,20.79297 c -0.627327,0.339498 -1.238847,0.706437 -1.833985,1.099609 -0.12272,0.08016 -0.156877,0.244824 -0.07617,0.367188 0.0808,0.122045 0.245332,0.155302 0.367188,0.07422 0.582224,-0.384641 1.181235,-0.742102 1.794922,-1.074218 0.129202,-0.06933 0.177381,-0.230512 0.107422,-0.359375 -0.06933,-0.129202 -0.230512,-0.177381 -0.359375,-0.107422 z M 1.7890625,20.896484 C 1.6612297,20.825911 1.5003913,20.872239 1.4296875,21 c -0.071907,0.128281 -0.025409,0.290583 0.1035156,0.361328 0.6107996,0.336846 1.2081852,0.700101 1.7871094,1.089844 0.1208396,0.08185 0.285134,0.05039 0.3671875,-0.07031 0.081462,-0.121347 0.049105,-0.285759 -0.072266,-0.367187 -0.5915748,-0.39826 -1.2013517,-0.77261 -1.8261719,-1.117188 z m -27.9843745,2.933594 c -0.539161,0.466624 -1.057971,0.956614 -1.554688,1.46875 -0.101504,0.104265 -0.09976,0.270927 0.0039,0.373047 0.104497,0.102808 0.272664,0.101059 0.375,-0.0039 0.485718,-0.500795 0.993676,-0.980701 1.521485,-1.4375 0.110515,-0.09549 0.122752,-0.262466 0.02734,-0.373047 -0.09549,-0.110514 -0.262465,-0.122752 -0.373046,-0.02734 z m 32.3496089,0.140625 c -0.1100613,-0.0959 -0.2769939,-0.08453 -0.3730469,0.02539 -0.096384,0.10954 -0.085899,0.276432 0.023437,0.373047 0.5240289,0.460407 1.0276698,0.944382 1.5097656,1.449218 0.1004791,0.105335 0.2671759,0.109714 0.3730469,0.0098 0.1066196,-0.100691 0.1110019,-0.268894 0.00977,-0.375 -0.4924199,-0.515676 -1.006943,-1.011503 -1.5429726,-1.482455 z m -35.6152339,3.714844 c -0.116968,-0.08818 -0.283319,-0.06454 -0.371094,0.05273 -0.42655,0.571374 -0.828128,1.160504 -1.203125,1.767578 -0.07756,0.124518 -0.039,0.288366 0.08594,0.365235 0.124107,0.07623 0.286482,0.03781 0.363282,-0.08594 0.366573,-0.593436 0.760167,-1.171127 1.177734,-1.730469 0.08685,-0.11663 0.0633,-0.28149 -0.05273,-0.36914 z m 38.8476558,0.169922 c -0.1173177,0.08645 -0.1426417,0.251492 -0.056641,0.36914 0.4129517,0.562261 0.7997032,1.143667 1.1621102,1.740235 0.07615,0.124446 0.238666,0.163764 0.363281,0.08789 0.125142,-0.0755 0.165368,-0.238158 0.08984,-0.363281 -0.370215,-0.60942 -0.767104,-1.202288 -1.1894539,-1.777344 -0.086451,-0.117318 -0.2514928,-0.142641 -0.3691406,-0.05664 z m -41.5800778,4.349609 c -0.13322,-0.05979 -0.289688,-3.46e-4 -0.34961,0.132813 -0.293298,0.650072 -0.55819,1.312529 -0.792968,1.986328 -0.04879,0.138084 0.02387,0.289535 0.162109,0.33789 0.138646,0.04861 0.290347,-0.02505 0.337891,-0.164062 0.229522,-0.658713 0.488378,-1.307221 0.77539,-1.94336 0.05979,-0.133219 3.46e-4,-0.289687 -0.132812,-0.349609 z m 44.271484,0.193359 c -0.133913,0.05918 -0.194309,0.215859 -0.134766,0.34961 0.281772,0.638139 0.53354,1.288389 0.757813,1.949219 0.04675,0.138761 0.197312,0.213167 0.335937,0.166015 0.138762,-0.04675 0.213168,-0.197311 0.166016,-0.335937 -0.229211,-0.675379 -0.487187,-1.341435 -0.775391,-1.994141 -0.05918,-0.133912 -0.215858,-0.194308 -0.349609,-0.134766 z m -45.958984,4.810547 c -0.142894,-0.0295 -0.282698,0.06225 -0.3125,0.205078 -0.145596,0.698333 -0.260769,1.404727 -0.34375,2.113282 -0.01663,0.145058 0.08738,0.27617 0.232422,0.292968 0.145058,0.01663 0.27617,-0.08738 0.292968,-0.232421 0.08115,-0.692913 0.193538,-1.381452 0.335938,-2.064454 0.03072,-0.143561 -0.06132,-0.284685 -0.205078,-0.314453 z m 47.601562,0.208985 c -0.142703,0.02892 -0.235225,0.167699 -0.207031,0.310547 0.136624,0.684074 0.243324,1.374753 0.318359,2.068359 0.01583,0.144978 0.145995,0.249807 0.291016,0.234375 0.144978,-0.01583 0.249807,-0.145995 0.234375,-0.291016 -0.07672,-0.709218 -0.18449,-1.415616 -0.324219,-2.115234 -0.02889,-0.143626 -0.16898,-0.236438 -0.3125,-0.207031 z m 0.519531,4.761718 c -0.146176,-5.76e-4 -0.265123,0.117495 -0.265625,0.263672 -2.05e-4,0.698238 -0.02928,1.39686 -0.08984,2.091797 -0.01299,0.146346 0.09574,0.275249 0.242187,0.28711 0.145615,0.01184 0.273271,-0.09658 0.285156,-0.242188 0.06195,-0.710859 0.09159,-1.423882 0.0918,-2.136719 -5e-4,-0.145414 -0.118258,-0.263172 -0.263672,-0.263672 z m -48.685546,0.28125 c -0.146181,0.0016 -0.263383,0.121399 -0.261719,0.267579 0.0079,0.712927 0.04698,1.42666 0.117187,2.136718 0.01486,0.144923 0.144078,0.250567 0.289063,0.236328 0.145708,-0.01386 0.25248,-0.143386 0.238281,-0.289062 -0.06864,-0.694172 -0.107471,-1.391823 -0.115234,-2.089844 -0.0016,-0.14618 -0.121399,-0.263382 -0.267578,-0.261719 z m 0.572265,5.25 c -0.142471,0.03332 -0.230848,0.175951 -0.197265,0.31836 0.16105,0.69487 0.352302,1.382513 0.574218,2.060547 0.04513,0.139301 0.194817,0.215458 0.333985,0.169922 0.138518,-0.04595 0.213672,-0.195385 0.167968,-0.333985 -0.217012,-0.66305 -0.402996,-1.335853 -0.560546,-2.015625 -0.03242,-0.143265 -0.175338,-0.232697 -0.31836,-0.199219 z m 1.695313,5.001954 c -0.132386,0.06288 -0.188436,0.221395 -0.125,0.353515 0.307897,0.643667 0.644839,1.272925 1.007812,1.886719 0.07411,0.125369 0.23561,0.16727 0.361328,0.09375 0.126547,-0.07417 0.168602,-0.237135 0.09375,-0.363281 -0.355291,-0.600804 -0.685303,-1.216404 -0.986328,-1.845703 -0.06286,-0.13127 -0.219941,-0.18712 -0.351562,-0.125 z M 9.40625,57.005859 c -0.1156156,-0.08771 -0.2803081,-0.06593 -0.3691406,0.04883 -0.4236846,0.55452 -0.8733152,1.092034 -1.34375,1.607422 -0.097876,0.10797 -0.090017,0.274759 0.017578,0.373047 0.1082296,0.09919 0.2765249,0.0913 0.375,-0.01758 0.4808679,-0.526818 0.9380738,-1.073887 1.3710939,-1.640625 0.088605,-0.116457 0.065853,-0.282722 -0.050781,-0.371094 z m -38.847656,0.22461 c -0.114741,0.09015 -0.134837,0.256172 -0.04492,0.371093 0.43946,0.561872 0.903899,1.103715 1.390625,1.625 0.09939,0.106452 0.266129,0.112562 0.373047,0.01367 0.106452,-0.09939 0.112562,-0.266129 0.01367,-0.373047 -0.476286,-0.510103 -0.929494,-1.042172 -1.359375,-1.591796 -0.09028,-0.115999 -0.257809,-0.136171 -0.373047,-0.04492 z m 34.8749997,3.607422 c -0.5332508,0.450566 -1.0842199,0.879275 -1.6542968,1.28125 -0.1199291,0.08401 -0.1488162,0.249457 -0.064453,0.36914 0.084014,0.119928 0.2494585,0.148814 0.3691406,0.06445 0.5831651,-0.4112 1.1468218,-0.850401 1.6914061,-1.310544 0.1117091,-0.09435 0.1257049,-0.261425 0.03125,-0.373046 -0.094351,-0.11171 -0.261426,-0.125706 -0.3730469,-0.03125 z m -30.8574217,0.179687 c -0.112658,-0.09352 -0.279846,-0.07776 -0.373047,0.03516 -0.09305,0.113174 -0.07642,0.280423 0.03711,0.373047 0.549827,0.45398 1.119277,0.884562 1.707032,1.289063 0.120332,0.08224 0.284512,0.05167 0.367187,-0.06836 0.08224,-0.120332 0.05167,-0.284512 -0.06836,-0.367187 -0.574668,-0.395494 -1.131646,-0.817276 -1.669922,-1.261719 z m 26.5273436,2.742188 c -0.61751982,0.325281 -1.24915328,0.62516 -1.8925781,0.894531 -0.13476725,0.05616 -0.1985737,0.210868 -0.14257813,0.345703 0.0561562,0.135851 0.21228488,0.199882 0.34765626,0.142578 C 0.07422163,64.867019 0.7186741,64.560864 1.3496094,64.228516 1.47911,64.160608 1.5289708,64.000529 1.4609375,63.871094 1.3930296,63.741593 1.2329504,63.691733 1.1035156,63.759766 Z m -22.1621096,0.128906 c -0.130473,-0.06746 -0.290919,-0.01573 -0.357422,0.115234 -0.06613,0.129998 -0.01459,0.288994 0.115235,0.355469 0.634783,0.324876 1.283988,0.622673 1.945312,0.890625 0.134832,0.05447 0.288356,-0.01007 0.34375,-0.144531 0.05577,-0.135375 -0.009,-0.290308 -0.144531,-0.345703 -0.646505,-0.261948 -1.281005,-0.553099 -1.902344,-0.871094 z m 17.3027346,1.787109 c -0.6730548,0.183804 -1.3543017,0.337402 -2.0410156,0.460938 -0.1449651,0.02523 -0.2414977,0.163883 -0.2148437,0.308593 0.026169,0.144171 0.1645253,0.23962 0.3085937,0.212891 0.7020703,-0.126299 1.3977608,-0.284723 2.0859375,-0.472656 0.1406082,-0.0385 0.2235812,-0.183484 0.1855469,-0.324219 -0.0385,-0.140608 -0.1834841,-0.223581 -0.3242188,-0.185547 z m -12.4218746,0.07227 c -0.141286,-0.03653 -0.285471,0.04823 -0.322266,0.189449 -0.03653,0.141287 0.04823,0.285473 0.189453,0.322266 0.690304,0.180021 1.388249,0.329289 2.091797,0.447265 0.143982,0.02417 0.280334,-0.07285 0.304687,-0.216797 0.02418,-0.143982 -0.07284,-0.280333 -0.216796,-0.304687 -0.688082,-0.115383 -1.37179,-0.261447 -2.046875,-0.4375 z m 7.2617184,0.74414 c -0.6969391,0.03433 -1.3961744,0.03766 -2.0937504,0.01172 -0.14547,-0.005 -0.267648,0.108466 -0.273437,0.253906 -0.0061,0.14622 0.107674,0.269612 0.253906,0.275391 0.71253,0.02649 1.4262192,0.02338 2.138672,-0.01172 0.1462553,-0.0068 0.2591724,-0.131107 0.2519531,-0.277343 -0.00681,-0.146256 -0.1311074,-0.259174 -0.2773437,-0.251954 z"
       id="circle3"
       sodipodi:nodetypes="cccccccscccccsscccccccscccccssscccccssccccccccccccccccccccccccccccccccccccccccccccccccccccccccccccccccccscccccssccccccccccccccccccccccccccccccscccccccccccscccccsscccccccccccscccccccccscccccssccccccc"
       transform="rotate(-64.263681)" />
    <path
       style="baseline-shift:baseline;display:inline;overflow:visible;opacity:1;fill:#ffffff;fill-opacity:1;fill-rule:evenodd;stroke:#000000;stroke-width:2.11667;stroke-linecap:round;stroke-linejoin:round;stroke-dasharray:none;stroke-dashoffset:0;stroke-opacity:1;paint-order:stroke fill markers;enable-background:accumulate;stop-color:#000000;stop-opacity:1"
       d="m 8.2597656,17.814453 c -0.5829763,-0.03922 -1.0874386,0.401419 -1.1269531,0.984375 -0.039247,0.582264 0.4002461,1.086414 0.9824219,1.126953 1.3461948,0.09152 2.6850726,0.302179 3.9941406,0.626953 0.568024,0.141421 1.142966,-0.20512 1.283203,-0.773437 0.140181,-0.567379 -0.206079,-1.140983 -0.773437,-1.28125 -1.429993,-0.354775 -2.8900054,-0.5837 -4.3593754,-0.683594 z m -6.5917969,0.398438 c -1.44644024,0.278187 -2.8700021,0.681941 -4.2460937,1.208984 -0.5458507,0.209224 -0.8186944,0.821373 -0.609375,1.367187 0.2092238,0.545851 0.8213734,0.818695 1.3671875,0.609375 1.25942246,-0.482358 2.56178875,-0.852603 3.8867188,-1.107421 C 2.6401511,20.180817 3.0160731,19.626551 2.90625,19.052734 2.7960512,18.47899 2.241785,18.103068 1.6679687,18.212891 Z m 16.2968753,2.609375 c -0.269682,0.07801 -0.497318,0.259982 -0.632813,0.505859 -0.281981,0.511845 -0.09574,1.155366 0.416016,1.4375 1.180638,0.651907 2.304651,1.408142 3.355469,2.255859 0.454669,0.367272 1.120981,0.296444 1.488281,-0.158203 0.366817,-0.455184 0.295107,-1.121562 -0.160156,-1.488281 -1.145615,-0.924193 -2.372181,-1.750637 -3.66211,-2.462891 -0.245717,-0.135424 -0.535153,-0.167739 -0.804687,-0.08984 z m -26.3515628,1.746093 c -1.1932441,0.863249 -2.3102892,1.830425 -3.3359372,2.886719 -0.407021,0.419139 -0.397407,1.088813 0.02148,1.496094 0.419139,0.407021 1.088813,0.397407 1.496094,-0.02148 0.9402872,-0.968382 1.9653339,-1.855569 3.0585936,-2.646484 0.4725138,-0.342781 0.5782524,-1.003428 0.2363282,-1.476562 -0.3421735,-0.473165 -1.0029196,-0.579794 -1.4765626,-0.238282 z m 33.9003908,5.355469 c -0.471743,0.346039 -0.573228,1.009185 -0.226563,1.480469 0.798241,1.088119 1.500954,2.245226 2.097657,3.455078 0.258044,0.52512 0.893219,0.74122 1.417968,0.482422 0.524382,-0.258759 0.739542,-0.893742 0.480469,-1.417969 -0.651613,-1.321188 -1.418024,-2.584131 -2.289062,-3.771484 -0.345434,-0.47239 -1.008675,-0.574764 -1.480469,-0.228516 z m -40.552735,2.324219 c -0.269729,0.07662 -0.498026,0.257153 -0.634765,0.501953 -0.720455,1.284438 -1.328999,2.632117 -1.814453,4.023437 -0.19241,0.551738 0.09874,1.155011 0.65039,1.347657 0.551738,0.19241 1.155011,-0.09873 1.347657,-0.650391 0.444279,-1.273312 1.001967,-2.508634 1.662109,-3.685547 0.286208,-0.510174 0.104249,-1.155778 -0.40625,-1.441406 -0.24491,-0.137394 -0.534385,-0.171821 -0.804688,-0.0957 z m -2.660156,10.017578 c -0.583081,-0.04385 -1.091232,0.393458 -1.134765,0.976562 -0.109262,1.467257 -0.09305,2.944645 0.05078,4.410157 0.05745,0.581261 0.574932,1.006089 1.15625,0.949218 0.582048,-0.05644 1.008005,-0.57424 0.951172,-1.15625 -0.13182,-1.343122 -0.147181,-2.699885 -0.04687,-4.046875 0.04272,-0.582346 -0.394279,-1.089261 -0.976563,-1.132812 z m 1.029297,10.458984 c -0.547597,0.205311 -0.824873,0.815843 -0.61914,1.363282 0.5176,1.380086 1.158759,2.713285 1.908203,3.980468 0.297902,0.502417 0.946509,0.668502 1.449218,0.371094 0.502417,-0.297902 0.668503,-0.94651 0.371094,-1.449219 -0.687181,-1.161908 -1.272626,-2.384068 -1.746094,-3.646484 -0.205311,-0.547597 -0.815842,-0.824873 -1.363281,-0.619141 z m 45.693359,1.722657 c -0.529657,-0.245342 -1.157952,-0.01552 -1.404296,0.513671 -0.568792,1.223523 -1.24662,2.398072 -2.019532,3.503907 -0.33532,0.479388 -0.218091,1.139893 0.261719,1.474609 0.479388,0.33532 1.139893,0.218091 1.474609,-0.261719 0.843831,-1.207302 1.580277,-2.488618 2.201172,-3.824218 0.246655,-0.530164 0.01663,-1.159891 -0.513672,-1.40625 z m -38.8476558,7.3125 c -0.4164622,-0.409675 -1.0861012,-0.404429 -1.4960942,0.01172 -0.41098,0.416691 -0.405729,1.087837 0.01172,1.498047 1.049698,1.032738 2.1897648,1.973047 3.402344,2.808594 0.4811938,0.330676 1.1392813,0.209196 1.4707031,-0.271484 0.3306764,-0.481194 0.2091968,-1.139282 -0.2714843,-1.470704 -1.1112587,-0.76573 -2.1551719,-1.6297 -3.1171876,-2.576171 z m 32.1152348,0.935546 c -0.280542,-0.02348 -0.558878,0.06579 -0.773438,0.248047 -1.031408,0.871713 -2.137525,1.65306 -3.302734,2.332032 -0.504765,0.294524 -0.675268,0.942432 -0.38086,1.447265 0.293857,0.505472 0.941922,0.676891 1.447266,0.382813 1.273252,-0.741928 2.479515,-1.596907 3.603516,-2.546875 0.445568,-0.37724 0.501499,-1.044041 0.125,-1.490235 -0.180655,-0.214716 -0.439186,-0.348899 -0.71875,-0.373047 z m -23.6054691,4.400391 c -0.5506825,-0.197178 -1.156893,0.08974 -1.3535157,0.640625 -0.195708,0.550663 0.09196,1.155728 0.6425782,1.351563 1.38794527,0.494939 2.81872444,0.867216 4.2714844,1.111328 0.5759281,0.0967 1.1213366,-0.29138 1.21875,-0.867188 0.097894,-0.576618 -0.2904834,-1.12332 -0.8671875,-1.220703 -1.3303335,-0.22354 -2.6418778,-0.562662 -3.9121094,-1.015625 z m 13.9453121,0.523438 c -1.301355,0.355014 -2.634879,0.596118 -3.9785152,0.71875 -0.5818932,0.0535 -1.0103127,0.568477 -0.9570313,1.15039 0.0535,0.581893 0.5684773,1.010313 1.1503906,0.957031 1.4668179,-0.133874 2.9224379,-0.395463 4.3437499,-0.783203 0.563408,-0.153974 0.895571,-0.735259 0.742188,-1.298828 -0.153082,-0.565177 -0.735992,-0.898643 -1.300782,-0.74414 z"
       id="path7"
       transform="rotate(-42.348064)"
       sodipodi:nodetypes="ccccccccccccccsccccccsscccccccccccccccsccccccssscccccssccccccccccccccscccccsscccccccccccccccccccccc" />
  </g>
</svg>
